<mxfile host="app.diagrams.net" modified="2025-08-22T01:58:06.619395" agent="python-gen" version="20.8.3"><diagram name="Reentry Trading Flow"><mxGraphModel><root><mxCell id="0" /><mxCell id="1" parent="0" /><mxCell id="2" value="0.000 — System Bootstrap (One-Time on Service Start)" style="swimlane;fontStyle=1;rounded=1;horizontal=0;childLayout=stackLayout;" vertex="1" parent="1"><mxGeometry x="40" y="40" width="300" height="440" as_="geometry" as="geometry" /></mxCell><mxCell id="3" value="0.001 (PY)&#10;Load Common\Files\reentry\config\parameters.schema.json into memory and validate file integrity." style="rounded=1;whiteSpace=wrap;html=1;strokeColor=#1a73e8;fillColor=#e8f0fe;" vertex="1" parent="2"><mxGeometry x="60" y="80" width="220" height="70" as_="geometry" as="geometry" /></mxCell><mxCell id="4" value="0.002 (PY)&#10;Validate schema self-integrity ($id, $schema fields present)." style="rounded=1;whiteSpace=wrap;html=1;strokeColor=#1a73e8;fillColor=#e8f0fe;" vertex="1" parent="2"><mxGeometry x="60" y="190" width="220" height="70" as_="geometry" as="geometry" /></mxCell><mxCell id="5" value="0.003 (PY)&#10;Ensure directories exist: ...\bridge, ...\logs, ...\config, ...\data. Create if missing." style="rounded=1;whiteSpace=wrap;html=1;strokeColor=#1a73e8;fillColor=#e8f0fe;" vertex="1" parent="2"><mxGeometry x="60" y="300" width="220" height="70" as_="geometry" as="geometry" /></mxCell><mxCell id="6" value="1.000 — Economic Calendar Ingestion (Hourly From Sunday 12:00 Local)" style="swimlane;fontStyle=1;rounded=1;horizontal=0;childLayout=stackLayout;" vertex="1" parent="1"><mxGeometry x="560" y="40" width="300" height="330" as_="geometry" as="geometry" /></mxCell><mxCell id="7" value="1.001 (PY)&#10;At scheduler tick, scan %USERPROFILE%\Downloads for newest economic_calendar*.csv/.xlsx." style="rounded=1;whiteSpace=wrap;html=1;strokeColor=#1a73e8;fillColor=#e8f0fe;" vertex="1" parent="6"><mxGeometry x="580" y="80" width="220" height="70" as_="geometry" as="geometry" /></mxCell><mxCell id="8" value="1.002 (PY)&#10;If none found GOTO 1.010. Else copy-as-new to data\economic_calendar_raw_YYYYMMDD_HHMMSS.ext (write→fsync→rename atomic)." style="rounded=1;whiteSpace=wrap;html=1;strokeColor=#1a73e8;fillColor=#e8f0fe;" vertex="1" parent="6"><mxGeometry x="580" y="190" width="220" height="70" as_="geometry" as="geometry" /></mxCell><mxCell id="9" value="3.000 — Matrix Routing &amp; Parameter Resolution" style="swimlane;fontStyle=1;rounded=1;horizontal=0;childLayout=stackLayout;" vertex="1" parent="1"><mxGeometry x="1080" y="40" width="300" height="220" as_="geometry" as="geometry" /></mxCell><mxCell id="10" value="3.006 (PY)&#10;Compute effective risk and position sizing via subprocess RISK_CALC." style="rounded=1;whiteSpace=wrap;html=1;strokeColor=#1a73e8;fillColor=#e8f0fe;" vertex="1" parent="9"><mxGeometry x="1100" y="80" width="220" height="70" as_="geometry" as="geometry" /></mxCell><mxCell id="11" value="11.000 — Error Handling &amp; Termination" style="swimlane;fontStyle=1;rounded=1;horizontal=0;childLayout=stackLayout;" vertex="1" parent="1"><mxGeometry x="1600" y="40" width="300" height="220" as_="geometry" as="geometry" /></mxCell><mxCell id="12" value="11.010 (PY)&#10;Abort initialization, log error, and raise E0000 if schema validation fails." style="rounded=1;whiteSpace=wrap;html=1;strokeColor=#1a73e8;fillColor=#e8f0fe;" vertex="1" parent="11"><mxGeometry x="1620" y="80" width="220" height="70" as_="geometry" as="geometry" /></mxCell><mxCell id="13" value="" edge="1" parent="1" source="3" target="4" style="endArrow=block;strokeColor=#555555;"><mxGeometry relative="1" as_="geometry" as="geometry" /></mxCell><mxCell id="14" value="" edge="1" parent="1" source="4" target="5" style="endArrow=block;strokeColor=#555555;"><mxGeometry relative="1" as_="geometry" as="geometry" /></mxCell><mxCell id="15" value="goto" edge="1" parent="1" source="3" target="12" style="dashed=1;strokeColor=#ef6c00;endArrow=block;"><mxGeometry relative="1" as_="geometry" as="geometry" /></mxCell><mxCell id="16" value="dep" edge="1" parent="1" source="3" target="4" style="dashed=1;strokeColor=#00acc1;endArrow=block;"><mxGeometry relative="1" as_="geometry" as="geometry" /></mxCell><mxCell id="17" value="goto" edge="1" parent="1" source="4" target="12" style="dashed=1;strokeColor=#ef6c00;endArrow=block;"><mxGeometry relative="1" as_="geometry" as="geometry" /></mxCell><mxCell id="18" value="dep" edge="1" parent="1" source="4" target="5" style="dashed=1;strokeColor=#00acc1;endArrow=block;"><mxGeometry relative="1" as_="geometry" as="geometry" /></mxCell><mxCell id="19" value="" edge="1" parent="1" source="7" target="8" style="endArrow=block;strokeColor=#555555;"><mxGeometry relative="1" as_="geometry" as="geometry" /></mxCell><mxCell id="20" value="dep" edge="1" parent="1" source="7" target="8" style="dashed=1;strokeColor=#00acc1;endArrow=block;"><mxGeometry relative="1" as_="geometry" as="geometry" /></mxCell></root></mxGraphModel></diagram></mxfile>